<svg xmlns="http://www.w3.org/2000/svg" viewBox="0 0 1120 770" width="1120" height="770" font-family="Segoe UI, Helvetica, Arial, sans-serif">
  <title>A* search: f = g + h, admissibility, and strategy comparison</title>
  <desc>On the left, the optimal path A* finds in the base scenario. On the right, the heuristic, its admissibility and consistency proofs, and the comparison table for five search strategies.</desc>
  <rect width="1120" height="770" fill="#fbfaf7"/>
  <text x="40" y="46" font-size="23" fill="#1f2933" font-weight="600">A* search - f(n) = g(n) + h(n)</text>
  <text x="40" y="72" font-size="14" fill="#52606d">g is the cost already paid; h estimates what remains. g alone is uniform cost (optimal, blind). h alone is greedy (fast, no guarantee).</text>
  <text x="40" y="112" font-size="15" fill="#1f2933" font-weight="700">Optimal path in the base scenario: NOC to RECLOSER_7</text>
  <rect x="40" y="126" width="530" height="396" rx="10" fill="#ffffff" stroke="#c9c2b8" stroke-width="1.0"/>
  <line x1="112" y1="188" x2="238" y2="168" stroke="#9a8c78" stroke-width="2" stroke-dasharray="3 3"/>
  <line x1="238" y1="168" x2="336" y2="206" stroke="#9a8c78" stroke-width="2" stroke-dasharray="3 3"/>
  <line x1="336" y1="206" x2="398" y2="282" stroke="#d4a373" stroke-width="2.6" stroke-dasharray="2 3"/>
  <line x1="398" y1="282" x2="452" y2="352" stroke="#d4a373" stroke-width="2.6" stroke-dasharray="2 3"/>
  <line x1="452" y1="352" x2="504" y2="292" stroke="#9a8c78" stroke-width="2" stroke-dasharray="3 3"/>
  <polyline points="112,188 170,262 296,326 448,388 504,292" fill="none" stroke="#D55E00" stroke-width="5" stroke-linejoin="round" stroke-linecap="round" opacity="0.9"/>
  <rect x="100" y="176" width="24" height="24" rx="4" fill="#1b3a6b"/>
  <text x="70" y="172" font-size="11" fill="#1f2933" font-weight="700">NOC</text>
  <circle cx="170" cy="262" r="10" fill="#3f7cac"/>
  <text x="96" y="266" font-size="10.5" fill="#1f2933">LTE_CORE</text>
  <polygon points="296,316 306,334 286,334" fill="#3f7cac"/>
  <text x="228" y="332" font-size="10.5" fill="#1f2933">LTE_ENB</text>
  <circle cx="448" cy="388" r="10" fill="#6b8f71"/>
  <text x="464" y="404" font-size="10.5" fill="#1f2933">RM_A5</text>
  <polygon points="504,278 512,292 504,306 496,292" fill="#b23a48"/>
  <text x="470" y="268" font-size="10.5" fill="#1f2933" font-weight="700">RECLOSER_7</text>
  <polygon points="238,158 248,176 228,176" fill="#c1666b"/>
  <text x="214" y="152" font-size="10.5" fill="#1f2933">AP_A</text>
  <circle cx="336" cy="206" r="9" fill="#6b8f71"/>
  <text x="322" y="196" font-size="10.5" fill="#1f2933">RM_A3</text>
  <rect x="390" y="274" width="16" height="16" rx="3" fill="#d4a373" transform="rotate(45 398 282)"/>
  <text x="336" y="272" font-size="10.5" fill="#1f2933">SAF_A1</text>
  <rect x="444" y="344" width="16" height="16" rx="3" fill="#d4a373" transform="rotate(45 452 352)"/>
  <text x="392" y="342" font-size="10.5" fill="#1f2933">SAF_A2</text>
  <text x="118" y="232" font-size="10.5" fill="#a8442a" font-weight="600">5.99</text>
  <text x="212" y="304" font-size="10.5" fill="#a8442a" font-weight="600">10.55</text>
  <text x="356" y="372" font-size="10.5" fill="#a8442a" font-weight="600">69.94</text>
  <text x="494" y="344" font-size="10.5" fill="#a8442a" font-weight="600">5.74</text>
  <rect x="58" y="428" width="494" height="76" rx="6" fill="#fdecea" stroke="#D55E00" stroke-width="1.0"/>
  <text x="72" y="450" font-size="12" fill="#a8442a" font-weight="700">NOC -&gt; LTE_CORE -&gt; LTE_ENB -&gt; RM_A5 -&gt; RECLOSER_7</text>
  <text x="72" y="470" font-size="13" fill="#a8442a" font-weight="700">total cost = 92.22 ms</text>
  <text x="72" y="492" font-size="11" fill="#a8442a">the optimal path avoids the store-and-forward chain entirely (dashed)</text>
  <rect x="596" y="126" width="484" height="150" rx="10" fill="#ffffff" stroke="#E69F00" stroke-width="2"/>
  <text x="614" y="150" font-size="14" fill="#8a6100" font-weight="700">THE HEURISTIC</text>
  <text x="614" y="180" font-size="13" fill="#1f2933" font-family="Consolas, SFMono-Regular, Menlo, monospace">h(n) =</text>
  <text x="676" y="174" font-size="12.5" fill="#1f2933" font-family="Consolas, SFMono-Regular, Menlo, monospace">straight_line_distance(n, goal)</text>
  <line x1="672" y1="182" x2="936" y2="182" stroke="#1f2933" stroke-width="1.2"/>
  <text x="742" y="200" font-size="12.5" fill="#1f2933" font-family="Consolas, SFMono-Regular, Menlo, monospace">MAX_SPEED</text>
  <text x="614" y="232" font-size="11.5" fill="#52606d">MAX_SPEED = 150 m/ms - the fastest effective speed in the</text>
  <text x="614" y="248" font-size="11.5" fill="#52606d">system (fibre). Dividing by the MAXIMUM is what guarantees</text>
  <text x="614" y="264" font-size="11.5" fill="#52606d">the estimate can never exceed the real cost.</text>
  <rect x="596" y="288" width="484" height="164" rx="10" fill="#e8f2f8" stroke="#0072B2" stroke-width="1.6"/>
  <text x="614" y="312" font-size="13.5" fill="#0b5c8a" font-weight="700">WHY IT IS ADMISSIBLE</text>
  <text x="614" y="334" font-size="11.5" fill="#1f2933">overhead &gt;= 0,  quality &lt;= 1,  speed(type) &lt;= MAX_SPEED</text>
  <text x="614" y="356" font-size="12" fill="#1f2933" font-family="Consolas, SFMono-Regular, Menlo, monospace">=&gt; cost(u,v) &gt;= d(u,v) / MAX_SPEED</text>
  <text x="614" y="378" font-size="11.5" fill="#52606d">Summing along the path and applying the triangle</text>
  <text x="614" y="394" font-size="11.5" fill="#52606d">inequality, distance travelled &gt;= the straight line.</text>
  <text x="614" y="416" font-size="12" fill="#1f2933" font-family="Consolas, SFMono-Regular, Menlo, monospace">=&gt; optimal_cost(n) &gt;= h(n)    admissible</text>
  <text x="614" y="440" font-size="12" fill="#1f2933" font-family="Consolas, SFMono-Regular, Menlo, monospace">h(u) &lt;= cost(u,v) + h(v)      consistent</text>
  <rect x="596" y="464" width="484" height="58" rx="8" fill="#e6f5f0" stroke="#009E73" stroke-width="1.0"/>
  <text x="614" y="486" font-size="12.5" fill="#046c50" font-weight="700">VERIFIED, NOT MERELY ARGUED</text>
  <text x="614" y="506" font-size="11.5" fill="#046c50">Tests check both properties over EVERY source-goal pair, in both scenarios.</text>
  <text x="40" y="558" font-size="15" fill="#1f2933" font-weight="700">Five strategies on one problem - three lessons</text>
  <rect x="40" y="572" width="1040" height="128" rx="8" fill="#ffffff" stroke="#c9c2b8" stroke-width="1.0"/>
  <line x1="40" y1="600" x2="1080" y2="600" stroke="#c9c2b8" stroke-width="1"/>
  <text x="60" y="592" font-size="12" fill="#52606d" font-weight="700">strategy</text>
  <text x="300" y="592" font-size="12" fill="#52606d" font-weight="700">steps</text>
  <text x="400" y="592" font-size="12" fill="#52606d" font-weight="700">cost (ms)</text>
  <text x="530" y="592" font-size="12" fill="#52606d" font-weight="700">nodes expanded</text>
  <text x="700" y="592" font-size="12" fill="#52606d" font-weight="700">optimal?</text>
  <text x="820" y="592" font-size="12" fill="#52606d" font-weight="700">lesson</text>
  <text x="60" y="620" font-size="12" fill="#1f2933">Breadth-first</text>
  <text x="300" y="620" font-size="12" fill="#1f2933">4</text>
  <text x="400" y="620" font-size="12" fill="#1f2933">357.35</text>
  <text x="530" y="620" font-size="12" fill="#1f2933">15</text>
  <text x="700" y="620" font-size="12" fill="#a8442a">steps only</text>
  <text x="820" y="620" font-size="11" fill="#52606d">counts fibre and store-and-forward alike</text>
  <text x="60" y="640" font-size="12" fill="#1f2933">Depth-first</text>
  <text x="300" y="640" font-size="12" fill="#1f2933">5</text>
  <text x="400" y="640" font-size="12" fill="#1f2933">343.06</text>
  <text x="530" y="640" font-size="12" fill="#1f2933">19</text>
  <text x="700" y="640" font-size="12" fill="#a8442a">no</text>
  <text x="820" y="640" font-size="11" fill="#52606d">no guarantee at all</text>
  <text x="60" y="660" font-size="12" fill="#1f2933">Uniform cost</text>
  <text x="300" y="660" font-size="12" fill="#1f2933">4</text>
  <text x="400" y="660" font-size="12" fill="#1f2933" font-weight="700">92.22</text>
  <text x="530" y="660" font-size="12" fill="#1f2933">13</text>
  <text x="700" y="660" font-size="12" fill="#046c50" font-weight="700">yes</text>
  <text x="820" y="660" font-size="11" fill="#52606d">optimal, but blind</text>
  <text x="60" y="680" font-size="12" fill="#1f2933">Greedy</text>
  <text x="300" y="680" font-size="12" fill="#1f2933">4</text>
  <text x="400" y="680" font-size="12" fill="#1f2933">357.35</text>
  <text x="530" y="680" font-size="12" fill="#1f2933" font-weight="700">5</text>
  <text x="700" y="680" font-size="12" fill="#a8442a">no</text>
  <text x="820" y="680" font-size="11" fill="#a8442a">the fastest - and wrong</text>
  <text x="60" y="716" font-size="12.5" fill="#8a6100" font-weight="700">A*</text>
  <text x="300" y="716" font-size="12.5" fill="#8a6100" font-weight="700">4</text>
  <text x="400" y="716" font-size="12.5" fill="#8a6100" font-weight="700">92.22</text>
  <text x="530" y="716" font-size="12.5" fill="#8a6100" font-weight="700">11</text>
  <text x="700" y="716" font-size="12.5" fill="#046c50" font-weight="700">yes</text>
  <text x="820" y="716" font-size="11.5" fill="#8a6100" font-weight="700">same optimum, less work</text>
  <rect x="40" y="726" width="1040" height="28" rx="6" fill="#fdf1dc" stroke="#E69F00" stroke-width="1.0"/>
  <text x="60" y="745" font-size="11.5" fill="#8a6100">The heuristic's advantage GROWS with the graph: summed over all node pairs, A* expands 9.0% fewer nodes than uniform cost at 17 nodes, and 27.2% fewer at 30.</text>
</svg>
